<mxfile host="app.diagrams.net" agent="Mozilla/5.0 (Macintosh; Intel Mac OS X 10_15_7) AppleWebKit/537.36 (KHTML, like Gecko) Chrome/138.0.0.0 Safari/537.36" version="28.0.7">
  <diagram name="第 1 页" id="rFx3F-lc2jaEvYG61oTg">
    <mxGraphModel dx="705" dy="403" grid="0" gridSize="10" guides="1" tooltips="1" connect="1" arrows="1" fold="1" page="0" pageScale="1" pageWidth="827" pageHeight="1169" math="0" shadow="0">
      <root>
        <mxCell id="0" />
        <mxCell id="1" parent="0" />
        <mxCell id="RHykBHSFywp3q6SZzhQj-3" value="" style="edgeStyle=orthogonalEdgeStyle;rounded=0;orthogonalLoop=1;jettySize=auto;html=1;" edge="1" parent="1" source="RHykBHSFywp3q6SZzhQj-1" target="RHykBHSFywp3q6SZzhQj-2">
          <mxGeometry relative="1" as="geometry" />
        </mxCell>
        <mxCell id="RHykBHSFywp3q6SZzhQj-1" value="多路召回" style="rounded=1;whiteSpace=wrap;html=1;fontSize=14;fillColor=#f5f5f5;fontColor=#333333;strokeColor=#666666;" vertex="1" parent="1">
          <mxGeometry x="160" y="340" width="90" height="50" as="geometry" />
        </mxCell>
        <mxCell id="RHykBHSFywp3q6SZzhQj-5" value="" style="edgeStyle=orthogonalEdgeStyle;rounded=0;orthogonalLoop=1;jettySize=auto;html=1;" edge="1" parent="1" source="RHykBHSFywp3q6SZzhQj-2" target="RHykBHSFywp3q6SZzhQj-4">
          <mxGeometry relative="1" as="geometry" />
        </mxCell>
        <mxCell id="RHykBHSFywp3q6SZzhQj-2" value="过滤与粗排" style="rounded=1;whiteSpace=wrap;html=1;fontSize=14;fillColor=#f5f5f5;fontColor=#333333;strokeColor=#666666;" vertex="1" parent="1">
          <mxGeometry x="290" y="340" width="90" height="50" as="geometry" />
        </mxCell>
        <mxCell id="RHykBHSFywp3q6SZzhQj-4" value="精排与打散" style="rounded=1;whiteSpace=wrap;html=1;fontSize=14;fillColor=#f5f5f5;fontColor=#333333;strokeColor=#666666;" vertex="1" parent="1">
          <mxGeometry x="414" y="340" width="90" height="50" as="geometry" />
        </mxCell>
      </root>
    </mxGraphModel>
  </diagram>
</mxfile>
